<svg width="804" height="364" viewBox="0 0 804 364" fill="none" xmlns="http://www.w3.org/2000/svg">
<path d="M65.1666 194.929C60.5902 207.924 56.7852 220.712 53.7518 233.294C50.7184 245.876 48.4875 257.21 47.0589 267.298C52.2012 264.889 57.6138 262.718 63.2968 260.784C68.9282 258.657 75.9872 256.458 84.4739 254.187C93.1535 251.864 102.348 249.919 112.058 248.353C121.715 246.594 131.117 245.42 140.261 244.831C139.803 237.726 139.213 228.592 138.492 217.428C137.771 206.264 136.799 194.548 135.575 182.28C134.3 169.819 132.761 157.531 130.958 145.418C129.297 133.06 127.226 122.257 124.745 113.01C123.195 107.23 121.954 102.606 121.024 99.1384C120.094 95.6706 119.532 93.9625 119.339 94.0141C115.289 95.0982 110.965 98.6301 106.367 104.61C101.962 110.538 97.3923 118.162 92.6571 127.483C88.1148 136.752 83.4968 147.28 78.8032 159.067C74.0579 170.661 69.5123 182.616 65.1666 194.929ZM95.0834 284.489C88.8596 285.948 82.7391 287.793 76.722 290.023C70.8461 292.008 65.4076 294.083 60.4066 296.248C55.4056 298.412 50.9832 300.422 47.1394 302.276C43.2957 304.131 40.5575 305.483 38.925 306.333C36.9205 308.109 35.2898 310.507 34.0329 313.528C32.9688 316.497 32.0529 319.633 31.2851 322.936C30.7102 326.187 30.354 329.483 30.2165 332.823C30.079 336.164 30.2497 339.112 30.7287 341.669C30.1953 347.387 28.985 351.737 27.0978 354.72C25.4034 357.651 23.3989 359.427 21.0844 360.046C17.8054 360.924 14.621 360.228 11.5313 357.957C8.44148 355.687 5.42736 352.157 2.48891 347.368C1.7755 342.397 1.10684 337.207 0.482949 331.799C-0.140945 326.391 -0.160359 320.924 0.424707 315.399C0.868575 310.118 2.06505 304.945 4.01412 299.88C5.96319 294.816 9.05755 290.168 13.2972 285.936C15.1115 275.745 16.7726 266.525 18.2805 258.274C19.9813 249.973 21.6374 241.889 23.2487 234.024C25.0528 226.108 27.0499 218.14 29.2398 210.12C31.5709 201.856 34.2033 192.788 37.1371 182.918C38.9311 177.275 41.2899 170.656 44.2135 163.059C47.2783 155.218 50.7031 147.178 54.4877 138.938C58.2207 130.505 62.2946 122.187 66.7096 113.985C71.0729 105.59 75.6429 97.9657 80.4196 91.112C85.3376 84.014 90.3727 78.1236 95.5251 73.4408C100.626 68.5653 105.684 65.4565 110.698 64.1143C117.835 62.2042 123.816 62.1521 128.642 63.9579C133.66 65.7121 137.825 68.5208 141.135 72.3841C144.446 76.2474 147.017 80.8246 148.85 86.1158C150.824 91.1627 152.483 96.1907 153.827 101.2C156.618 111.603 158.978 122.329 160.908 133.376C162.979 144.178 164.478 155.547 165.405 167.482C166.474 179.172 166.927 191.647 166.762 204.906C166.739 217.921 165.933 231.869 164.343 246.749C172.113 247.973 178.033 250.002 182.101 252.837C186.117 255.478 189.004 260.075 190.761 266.625C192.156 271.827 192.665 277.576 192.287 283.872C191.908 290.167 190.925 296.522 189.338 302.935C187.803 309.541 185.9 315.935 183.631 322.117C181.362 328.3 179.008 333.783 176.57 338.565C174.734 341.741 173.033 344.261 171.466 346.126C170.143 348.132 168.903 349.289 167.746 349.599C164.853 350.373 162.927 348.204 161.969 343.092C161.256 338.121 161.081 332.076 161.446 324.958C162.017 318.61 162.254 312.558 162.157 306.803C162.253 300.995 162.42 295.066 162.657 289.014C162.047 284.428 159.644 281.251 155.449 279.483C151.253 277.715 145.959 276.861 139.567 276.92C133.419 277.12 126.409 277.963 118.539 279.45C110.669 280.937 102.85 282.617 95.0834 284.489Z" fill="#F9E547"/>
<path d="M285.832 2.99338C292.414 -0.213633 298.24 -0.843726 303.311 1.1031C308.329 2.85728 311.82 7.39487 313.784 14.7159C313.45 15.0118 313.213 15.2819 313.072 15.5261C313.123 15.7188 312.539 17.0107 311.32 19.4019C310.242 21.5488 308.369 25.3541 305.7 30.8177C303.172 36.037 299.188 43.9175 293.747 54.4594C297.604 53.4269 301.335 53.461 304.938 54.5616C308.733 55.6106 312.105 57.3925 315.054 59.9072C318.196 62.3702 320.862 65.3735 323.053 68.9169C325.436 72.4087 327.171 76.1775 328.256 80.2233C330.014 86.7737 329.969 92.7738 328.124 98.2235C326.471 103.622 324.058 108.5 320.887 112.86C317.856 116.975 314.599 120.634 311.118 123.837C307.584 126.848 304.911 129.215 303.1 130.939C302.766 131.235 302.361 131.653 301.886 132.193C301.41 132.733 301.836 133.548 303.162 134.639C305.621 136.871 308.885 139.405 312.953 142.24C316.97 144.881 321.404 147.928 326.258 151.378C331.845 155.251 336.011 159.608 338.757 164.449C341.644 169.045 343.604 173.269 344.637 177.123C347.118 186.37 346.89 194.381 343.952 201.156C341.015 207.93 336.777 213.71 331.239 218.496C325.894 223.231 319.975 226.983 313.483 229.753C307.235 232.664 301.893 234.713 297.456 235.901C288.095 237.993 281.26 239.1 276.951 239.221C272.694 239.534 270.384 239.017 270.022 237.668C269.609 236.127 271.291 233.921 275.069 231.052C278.989 227.938 283.461 224.573 288.486 220.956C294.231 216.941 298.967 213.402 302.693 210.34C306.613 207.226 309.638 204.248 311.77 201.406C313.902 198.564 315.21 195.736 315.696 192.922C316.13 189.915 315.881 186.677 314.951 183.209C314.176 180.32 312.732 178.021 310.621 176.315C308.458 174.416 305.69 172.576 302.318 170.794C299.087 168.768 295.367 166.46 291.157 163.87C287.089 161.035 282.596 157.385 277.677 152.92C277.367 151.764 276.323 150.185 274.546 148.183C272.961 146.129 271.729 143.464 270.851 140.189C270.024 137.107 269.712 134.403 269.915 132.077C270.311 129.7 270.881 127.585 271.625 125.734C272.51 123.639 273.498 121.929 274.59 120.604C275.823 119.036 276.792 117.64 277.498 116.419C279.578 113.384 281.974 110.369 284.684 107.372C287.343 104.182 289.86 101.237 292.237 98.5362C294.613 95.8353 296.585 93.5524 298.152 91.6876C299.86 89.5785 300.637 88.2349 300.482 87.657C300.172 86.501 299.527 85.641 298.549 85.0768C297.571 84.5127 296.792 84.3081 296.214 84.4629C293.128 85.2889 290.319 86.7633 287.788 88.8863C285.449 90.9576 283.31 93.3884 281.371 96.1787C279.625 98.9175 278.053 101.919 276.655 105.184C275.398 108.205 274.212 111.104 273.096 113.88C268.378 127.119 264.46 141.796 261.341 157.912C258.17 173.834 255.528 190.957 253.415 209.281C251.443 227.36 249.825 246.377 248.563 266.332C247.545 286.427 246.779 307.075 246.264 328.275C246.058 339.067 245.752 346.789 245.346 351.441C245.185 356.233 244.429 358.81 243.079 359.171C241.922 359.481 240.015 356.997 237.359 351.72C234.947 346.584 232.527 339.488 230.098 330.433C225.653 313.865 222.86 296.131 221.719 277.233C220.577 258.335 220.785 239.076 222.344 219.455C224.044 199.59 226.882 179.73 230.858 159.875C234.835 140.02 239.597 120.781 245.144 102.158C250.833 83.2902 257.12 65.5011 264.008 48.7904C270.843 31.8872 278.118 16.6215 285.832 2.99338Z" fill="#F9E547"/>
<path d="M486.035 171.182C485.776 170.218 485.485 168.747 485.161 166.769C484.837 164.791 484.488 162.717 484.112 160.546C483.929 158.323 483.746 156.101 483.564 153.878C483.381 151.656 483.231 149.941 483.114 148.733C479.866 154.352 476.278 159.855 472.348 165.243C468.419 170.631 464.263 175.563 459.883 180.039C455.502 184.516 450.966 188.414 446.275 191.734C441.584 195.055 436.828 197.36 432.006 198.651C418.89 202.161 407.937 201.789 399.146 197.534C390.497 193.035 384.312 183.849 380.591 169.978C378.834 163.427 378.034 156.208 378.192 148.319C378.298 140.237 380.453 130.162 384.658 118.093C386.672 114.043 388.752 111.009 390.898 108.989C393.044 106.969 395.081 105.701 397.01 105.185C401.06 104.101 404.251 105.209 406.584 108.508C409.057 111.563 410.991 115.691 412.387 120.893C411.185 127.202 409.746 133.782 408.069 140.632C406.533 147.238 406.67 153.912 408.479 160.655C409.978 166.242 412.265 169.76 415.341 171.208C418.61 172.605 421.884 172.864 425.163 171.987C429.406 170.851 433.956 167.775 438.812 162.758C443.861 157.69 448.633 151.974 453.127 145.608C457.814 139.192 462.064 132.685 465.876 126.09C469.83 119.25 472.762 113.613 474.673 109.178C476.815 104.062 479.409 99.8574 482.453 96.5647C485.498 93.272 488.37 91.2642 491.07 90.5415C495.7 89.3026 499.272 91.4439 501.786 96.9656C504.494 102.436 505.456 110.644 504.671 121.592C504.255 128.517 503.844 134.306 503.438 138.957C503.173 143.364 502.927 147.457 502.7 151.234C502.422 154.819 502.239 158.378 502.154 161.912C502.068 165.445 502.137 169.556 502.361 174.246C502.417 177.535 502.472 180.824 502.528 184.113C502.827 187.543 502.728 190.254 502.229 192.246C501.922 194.186 501.113 195.022 499.8 194.754C498.488 194.486 496.37 192.368 493.445 188.402C490.868 184.962 489.122 181.919 488.205 179.273C487.43 176.383 486.707 173.686 486.035 171.182Z" fill="#F9E547"/>
<path d="M633.218 129.002C632.133 136.519 631.268 144.081 630.621 151.688C630.026 159.487 629.649 167.331 629.492 175.22C629.42 179.576 629.077 183.694 628.464 187.575C627.903 191.648 627.213 195.24 626.394 198.35C625.626 201.653 624.774 204.256 623.837 206.159C622.952 208.254 622.027 209.431 621.063 209.689C620.098 209.947 618.901 209.338 617.472 207.862C616.235 206.335 614.966 204.3 613.664 201.758C612.413 199.408 611.207 196.84 610.046 194.053C609.13 191.407 608.458 188.903 608.031 186.539C607.255 183.65 606.492 180.034 605.741 175.692C605.234 171.491 604.772 167.072 604.355 162.435C604.131 157.745 603.932 153.152 603.76 148.656C603.78 144.108 604.026 140.015 604.498 136.379C600.103 140.033 595.786 143.976 591.546 148.208C587.255 152.247 583.156 156.235 579.251 160.171C575.397 164.3 571.807 168.255 568.48 172.036C565.346 175.766 562.616 179.078 560.292 181.971C555.694 187.951 551.776 192.613 548.539 195.957C545.494 199.25 543.233 201.61 541.756 203.038C538.467 206.19 536.114 207.439 534.699 206.786C533.283 206.132 532.644 204.135 532.781 200.794C532.778 197.698 533.506 193.476 534.966 188.13C536.477 182.976 538.561 177.256 541.216 170.97C543.781 165.122 547.003 159.407 550.881 153.826C554.952 148.194 559.293 142.799 563.904 137.641C568.657 132.239 573.61 127.197 578.762 122.514C583.914 117.831 588.977 113.586 593.951 109.777C584.661 107.514 575.63 106.214 566.857 105.878C558.084 105.541 550.327 105.139 543.587 104.672C535.85 99.7219 532.571 94.8179 533.748 89.9599C534.926 85.102 539.243 81.1589 546.7 78.1307C548.102 77.962 550.668 77.8947 554.398 77.9288C558.076 77.7702 562.656 77.8868 568.136 78.2785C573.616 78.6703 579.804 79.3888 586.699 80.4341C593.788 81.4277 601.417 82.8961 609.587 84.8393C611.044 76.3964 612.801 67.1502 614.86 57.1006C616.919 47.051 619.312 36.7055 622.039 26.0641C624.326 23.8001 626.453 22.0952 628.419 20.9494C630.334 19.6109 632.063 18.7352 633.606 18.3222C636.692 17.4962 639.214 17.6474 641.17 18.7757C643.319 19.8523 644.897 21.495 645.903 23.7037C647.102 25.8607 647.844 28.2431 648.13 30.8509C648.609 33.4071 648.818 35.7259 648.756 37.8073C647.668 42.2283 646.714 45.9939 645.895 49.1041C645.024 52.0217 644.223 54.8171 643.493 57.4903C642.711 59.9709 642 62.3294 641.36 64.5657C640.719 66.802 640.06 69.3531 639.382 72.219C650.345 64.5357 660.935 57.7778 671.154 51.9455C681.514 45.8688 691.683 41.392 701.662 38.515C709.883 40.6507 714.666 44.2232 716.01 49.2323C717.405 54.4341 714.833 59.8718 708.293 65.5456C701.979 67.4418 695.339 70.0451 688.371 73.3553C681.403 76.6656 674.68 80.1169 668.202 83.7092C661.723 87.3016 655.92 90.7132 650.791 93.9442C645.663 97.1752 642 99.7042 639.803 101.531C645.979 102.976 653.107 104.888 661.188 107.268C669.409 109.404 677.619 112.265 685.817 115.853C694.208 119.389 702.053 123.587 709.352 128.448C716.703 133.501 722.736 139.424 727.452 146.214C728.096 147.075 728.155 147.678 727.628 148.026C727.294 148.322 726.567 148.31 725.447 147.99C723.891 147.581 721.748 146.915 719.02 145.993C716.292 145.072 713.468 144.176 710.547 143.305C707.626 142.435 704.827 141.636 702.151 140.906C699.667 140.126 697.866 139.575 696.747 139.255C687.354 136.607 676.951 134.435 665.54 132.74C654.27 130.801 643.496 129.555 633.218 129.002Z" fill="#F9E547"/>
<path fill-rule="evenodd" clip-rule="evenodd" d="M803.888 205.331C804.701 210.696 801.007 215.704 795.636 216.517C633.513 241.053 509.306 266.722 425.868 291.683C384.077 304.186 353.014 316.367 332.627 327.889C322.416 333.659 315.359 339.003 310.982 343.764C306.599 348.531 305.607 351.912 305.634 354.05C305.704 359.476 301.356 363.93 295.924 363.999C290.492 364.068 286.033 359.726 285.964 354.3C285.849 345.345 290.182 337.337 296.492 330.473C302.809 323.603 311.815 317.074 322.94 310.787C345.225 298.192 377.927 285.514 420.224 272.86C504.961 247.509 630.218 221.677 792.689 197.089C798.06 196.276 803.074 199.966 803.888 205.331Z" fill="#F9E547"/>
</svg>
